<svg width="48" height="48" viewBox="0 0 48 48" fill="none" xmlns="http://www.w3.org/2000/svg">
<path d="M13.9961 0C6.2781 0 0 6.2839 0 14.0039V34.0039C0 41.7219 6.2839 48 14.0039 48H34.0039C41.7219 48 48 41.7161 48 33.9961V13.9961C48 6.2781 41.7161 0 33.9961 0H13.9961ZM38 7.99999C39.104 7.99999 40 8.89599 40 9.99999C40 11.104 39.104 12 38 12C36.896 12 36 11.104 36 9.99999C36 8.89599 36.896 7.99999 38 7.99999ZM24 12C30.618 12 36 17.382 36 24C36 30.618 30.618 36 24 36C17.382 36 12 30.618 12 24C12 17.382 17.382 12 24 12ZM24 16C19.5817 16 16 19.5817 16 24C16 28.4183 19.5817 32 24 32C28.4183 32 32 28.4183 32 24C32 19.5817 28.4183 16 24 16Z" fill="#E3DFD6"/>
</svg>
