<svg width="44" height="44" viewBox="0 0 44 44" fill="none" xmlns="http://www.w3.org/2000/svg">
<path d="M40 0H4C1.79 0 0 1.79 0 4V40C0 42.21 1.79 44 4 44H40C42.21 44 44 42.21 44 40V4C44 1.79 42.208 0 40 0ZM37.378 18.948C37.118 18.972 36.856 18.988 36.592 18.988C33.602 18.988 30.974 17.452 29.444 15.126C29.444 21.224 29.444 28.164 29.444 28.28C29.444 33.65 25.09 38.002 19.722 38.002C14.354 38 10 33.646 10 28.278C10 22.908 14.354 18.556 19.722 18.556C19.926 18.556 20.124 18.574 20.322 18.586V23.378C20.122 23.354 19.928 23.318 19.722 23.318C16.982 23.318 14.76 25.54 14.76 28.28C14.76 31.02 16.98 33.242 19.722 33.242C22.464 33.242 24.884 31.082 24.884 28.342C24.884 28.232 24.932 6.002 24.932 6.002H29.51C29.94 10.096 33.246 13.328 37.378 13.624V18.948Z" fill="#E3DFD6"/>
</svg>
